<svg width="158" height="91" viewBox="0 0 158 91" fill="none" xmlns="http://www.w3.org/2000/svg">
<g clip-path="url(#clip0_53_4755)">
<path d="M120.953 58.8378H53.1148L87.0345 0.134483L36.0599 68.6768L120.953 58.8378Z" fill="white"/>
<path d="M87.742 55.6059L97.7318 38.3261L102.031 45.7666L91.4757 55.6059H119.086L114.35 47.4094L97.7347 18.6518L82.0583 45.7666H75.7723L88.9013 3.36776L58.7172 55.6059" fill="white"/>
<path d="M10.7065 88.5879V90.9054H4.11947C3.47028 90.9054 2.85796 90.7571 2.30131 90.479C1.48465 90.0709 0.816675 89.4037 0.42702 88.5879C0.148929 88.0317 0.000488281 87.4196 0.000488281 86.7709V77.9272H2.31986V86.9934C2.43096 87.8092 3.08062 88.4579 3.89681 88.5693" fill="white"/>
<path d="M25.0681 90.8871H22.4704L21.2828 88.5696L18.4439 83.0075L15.6048 88.5696L14.4175 90.8871H11.82L13.0073 88.5696L18.4439 77.9089L23.8803 88.5696" fill="white"/>
<path d="M39.2253 88.5696V90.8871H29.1872L29.1687 90.9057H26.237L26.2556 90.8871L28.0368 88.5696L31.2281 84.4351L32.6939 82.544L34.4752 80.245H26.2184V77.9275H36.2565H39.1698L37.3698 80.245L34.1412 84.4351L32.6754 86.326L30.9312 88.5696" fill="white"/>
<path d="M49.8203 84.398C49.8203 82.0988 47.9462 80.2265 45.6456 80.2265C43.3448 80.2265 41.4707 82.0988 41.4707 84.398C41.4707 86.6968 43.3448 88.5694 45.6456 88.5694C47.9462 88.5694 49.8203 86.6968 49.8203 84.398ZM52.1396 84.398C52.1396 87.9761 49.2265 90.8869 45.6456 90.8869C42.0645 90.8869 39.1511 87.9761 39.1511 84.398C39.1511 80.8195 42.0645 77.9089 45.6456 77.9089C49.2265 77.9089 52.1396 80.8195 52.1396 84.398Z" fill="white"/>
<path d="M61.7327 82.6364C61.8993 82.6364 62.0665 82.5994 62.2152 82.5252C62.6419 82.3398 62.92 81.9134 62.92 81.4499C62.92 81.0234 62.6974 80.7268 62.5677 80.5972C62.4193 80.4489 62.1407 80.2635 61.7327 80.2635H55.8508V82.655L61.7327 82.6364ZM64.0336 88.6064L65.2211 90.924H62.6232L61.4359 88.6064L60.1927 86.1779L60.1368 86.0664C59.7288 85.3989 59.0052 84.954 58.1702 84.954H55.8508V90.924H53.5314V77.946H61.7327C62.6974 77.946 63.5695 78.3353 64.2006 78.9655C64.8314 79.5961 65.2211 80.4672 65.2211 81.4313C65.2211 82.8404 64.3859 84.064 63.18 84.6202C62.8644 84.7686 62.5304 84.8613 62.1781 84.8984" fill="white"/>
<path d="M86.0955 81.5058V81.4316C86.0955 80.7827 85.5574 80.245 84.908 80.245H79.6381C78.9889 80.245 78.4508 80.7827 78.4508 81.4316V81.5058C78.4508 82.1547 78.9889 82.6923 79.6381 82.6923H84.3142C85.5201 82.6923 86.5963 83.2115 87.3387 84.027C87.3944 84.0826 87.4312 84.1385 87.4871 84.1941C88.0621 84.8984 88.4149 85.8069 88.4149 86.7897C88.4149 89.0514 86.5777 90.8871 84.3142 90.8871H80.2504C77.987 90.8871 76.1498 89.0514 76.1498 86.7897H78.4692C78.4692 87.7721 79.2673 88.5696 80.2504 88.5696H84.3142C85.2976 88.5696 86.1138 87.7721 86.1138 86.7897C86.1138 85.8069 85.2976 85.0099 84.3142 85.0099H79.6381C78.6918 85.0099 77.8383 84.6391 77.2077 84.027C77.0407 83.8601 76.8922 83.675 76.7621 83.471C76.3724 82.9148 76.1498 82.2288 76.1498 81.4872V81.4128C76.1498 79.4849 77.7084 77.9089 79.6381 77.9089H84.908C86.8377 77.9089 88.4149 79.4849 88.4149 81.4128V81.4872" fill="white"/>
<path d="M98.9724 82.5069C99.3992 82.3213 99.6775 81.8951 99.6775 81.4316C99.6775 81.0052 99.4551 80.7085 99.325 80.5787C99.1765 80.4302 98.8985 80.245 98.49 80.245H92.6081V82.6367H98.49C98.657 82.6367 98.824 82.5994 98.9724 82.5252V82.5069ZM100.958 78.9655C101.589 79.5963 101.979 80.4673 101.979 81.4316C101.979 82.8404 101.143 84.0641 99.9373 84.6203C99.6219 84.7686 99.2879 84.8613 98.9353 84.8982H98.824V84.9169H92.6081V90.8869H90.2887V77.9087H98.4714C99.4365 77.9087 100.308 78.298 100.939 78.9286" fill="white"/>
<path d="M113.223 84.398C113.223 82.0988 111.349 80.2265 109.048 80.2265C106.747 80.2265 104.873 82.0988 104.873 84.398C104.873 86.6968 106.747 88.5694 109.048 88.5694C111.349 88.5694 113.223 86.6968 113.223 84.398ZM115.542 84.398C115.542 87.9761 112.629 90.8869 109.048 90.8869C105.467 90.8869 102.554 87.9761 102.554 84.398C102.554 80.8195 105.467 77.9089 109.048 77.9089C112.629 77.9089 115.542 80.8195 115.542 84.398Z" fill="white"/>
<path d="M125.135 82.6364C125.302 82.6364 125.469 82.5994 125.618 82.5252C126.044 82.3398 126.323 81.9134 126.323 81.4499C126.323 81.0234 126.1 80.7268 125.97 80.5972C125.822 80.4489 125.543 80.2635 125.135 80.2635H119.253V82.655L125.135 82.6364ZM127.436 88.6064L128.624 90.924H126.026L124.838 88.6064L123.595 86.1779L123.539 86.0664C123.131 85.3989 122.408 84.954 121.573 84.954H119.253V90.924H116.934V77.946H125.135C126.1 77.946 126.972 78.3353 127.603 78.9655C128.234 79.5961 128.624 80.4672 128.624 81.4313C128.624 82.8404 127.789 84.064 126.583 84.6202C126.267 84.7686 125.933 84.8613 125.581 84.8984" fill="white"/>
<path d="M142.856 77.9275V80.245H137.53V90.9057H135.211V80.245H129.886V77.9275" fill="white"/>
<path d="M154.693 81.5058V81.4316C154.693 80.7827 154.155 80.245 153.506 80.245H148.236C147.587 80.245 147.048 80.7827 147.048 81.4316V81.5058C147.048 82.1547 147.587 82.6923 148.236 82.6923H152.912C154.118 82.6923 155.194 83.2115 155.937 84.027C155.992 84.0826 156.029 84.1385 156.085 84.1941C156.66 84.8984 157.013 85.8069 157.013 86.7897C157.013 89.0514 155.176 90.8871 152.912 90.8871H148.849C146.585 90.8871 144.748 89.0514 144.748 86.7897H147.067C147.067 87.7721 147.865 88.5696 148.849 88.5696H152.912C153.895 88.5696 154.712 87.7721 154.712 86.7897C154.712 85.8069 153.895 85.0099 152.912 85.0099H148.236C147.29 85.0099 146.436 84.6391 145.806 84.027C145.639 83.8601 145.49 83.675 145.36 83.471C144.971 82.9148 144.748 82.2288 144.748 81.4872V81.4128C144.748 79.4849 146.306 77.9089 148.236 77.9089H153.506C155.436 77.9089 157.013 79.4849 157.013 81.4128V81.4872" fill="white"/>
</g>
<defs>
<clipPath id="clip0_53_4755">
<rect width="157.13" height="91" fill="white"/>
</clipPath>
</defs>
</svg>
