<svg width="199" height="45" viewBox="0 0 199 45" fill="none" xmlns="http://www.w3.org/2000/svg">
<path d="M41.3108 22.5874C41.2952 26.2084 40.054 29.7283 37.7711 32.6256C35.4882 35.5229 32.285 37.6434 28.6363 38.6728C24.9875 39.7023 21.0873 39.586 17.5134 38.3412C13.9395 37.0963 10.8822 34.7892 8.7945 31.7616C17.0004 34.2 25.6346 32.8651 29.3085 30.1357C30.5729 29.2777 31.6044 28.1456 32.3176 26.833C33.0308 25.5203 33.4052 24.065 33.4098 22.5874C33.4209 20.6462 32.777 18.7528 31.5729 17.1858L23.6119 24.7341L15.6509 17.1858C14.4467 18.7528 13.8028 20.6462 13.8139 22.5874C13.8247 23.8623 14.0958 25.1232 14.612 26.2998C11.6953 26.1726 8.8107 25.6658 6.03864 24.7935C5.93684 24.0818 5.89588 23.3633 5.91618 22.6452C5.90867 18.716 7.36203 14.9109 10.0191 11.903C11.6378 10.0771 13.6401 8.59385 15.8974 7.54852L23.5519 14.8067L31.2071 7.54852C33.4647 8.59376 35.4673 10.0771 37.0862 11.903C39.828 14.8486 41.3321 18.6527 41.3108 22.5874Z" fill="#9C9C9D"/>
<path d="M23.6137 2.5622e-05C18.9381 0.00643365 14.3694 1.33148 10.485 3.8077C6.60065 6.28393 3.57495 9.80018 1.79033 13.9121C0.00570671 18.024 -0.457741 22.547 0.458557 26.9094C1.37486 31.2718 3.62977 35.2779 6.93832 38.4213C10.2469 41.5648 14.4606 43.7045 19.0469 44.57C23.6331 45.4356 28.3862 44.9881 32.7053 43.2842C37.0243 41.5803 40.7156 38.6964 43.3126 34.997C45.9095 31.2976 47.2956 26.9487 47.2956 22.5C47.2958 19.5425 46.6831 16.6139 45.4927 13.8819C44.3022 11.1499 42.5573 8.66798 40.3577 6.5782C38.1582 4.48842 35.5472 2.83176 32.6741 1.70301C29.8009 0.57426 26.7221 -0.00443766 23.6137 2.5622e-05ZM23.6137 42.202C19.5259 42.2011 15.5301 41.0472 12.1312 38.8863C8.73231 36.7254 6.08294 33.6544 4.51785 30.0613C2.95276 26.4682 2.5422 22.5143 3.33805 18.6993C4.1339 14.8843 6.10045 11.3794 8.98917 8.62741C11.8779 5.87544 15.5592 3.99996 19.5678 3.23795C23.5764 2.47594 27.7325 2.86162 31.5108 4.34623C35.2892 5.83085 38.5202 8.34778 40.7956 11.579C43.071 14.8102 44.2887 18.6106 44.2948 22.5C44.3016 25.0871 43.7716 27.6499 42.735 30.0416C41.6984 32.4333 40.1757 34.6067 38.2543 36.4372C36.3328 38.2676 34.0505 39.7192 31.5381 40.7084C29.0257 41.6977 26.3328 42.2052 23.6137 42.202Z" fill="#9C9C9D"/>
<path d="M153.204 32.5778L156.999 19.0089C157.191 18.3248 157.618 17.7215 158.212 17.2951C158.806 16.8687 159.533 16.6438 160.277 16.6562H166.603L165.511 20.5955H162.233C161.845 20.5989 161.471 20.7323 161.177 20.9723C160.882 21.2122 160.686 21.5433 160.623 21.9073L157.632 32.5778H153.204Z" fill="#9C9C9D"/>
<path d="M144.52 32.575C143.666 32.6264 142.81 32.5069 142.008 32.2242C141.206 31.9415 140.475 31.5019 139.862 30.9336C139.301 30.3147 138.884 29.5907 138.636 28.8084C138.388 28.0261 138.316 27.203 138.424 26.3924C138.469 23.8091 139.443 21.3184 141.182 19.3341C141.946 18.462 142.905 17.7636 143.99 17.2903C145.075 16.8169 146.257 16.5806 147.45 16.5986C148.304 16.5471 149.159 16.6666 149.962 16.9493C150.764 17.232 151.495 17.6717 152.108 18.2399C152.668 18.8588 153.086 19.5828 153.334 20.3651C153.581 21.1474 153.654 21.9705 153.546 22.7811C153.511 25.3663 152.536 27.8603 150.788 29.8394C150.037 30.7253 149.079 31.4334 147.992 31.908C146.904 32.3827 145.716 32.611 144.52 32.575ZM146.935 20.4283C146.381 20.4566 145.845 20.6233 145.381 20.9114C144.916 21.1995 144.54 21.599 144.289 22.0696C143.504 23.2914 143.068 24.6871 143.024 26.1185C142.932 26.8136 143.117 27.5165 143.542 28.0885C143.728 28.3236 143.973 28.5114 144.253 28.6354C144.534 28.7595 144.842 28.816 145.152 28.8C145.703 28.7649 146.236 28.5955 146.7 28.3081C147.163 28.0207 147.541 27.6249 147.797 27.1587C148.574 25.9336 149.01 24.5399 149.062 23.1098C149.158 22.4221 148.995 21.7242 148.602 21.1398C148.391 20.9179 148.134 20.7404 147.847 20.6184C147.56 20.4965 147.249 20.4328 146.935 20.4314V20.4283Z" fill="#9C9C9D"/>
<path d="M138.252 12.6074L126.175 32.5779V16.6563H122.208L116.572 26.1215V16.6563H112.374V32.5779H116.572L121.978 23.6051V40.6749H126.175L145.497 8.61334C144.028 8.61614 142.584 8.98665 141.313 9.68769C140.041 10.3887 138.985 11.3957 138.252 12.6074Z" fill="#9C9C9D"/>
<path d="M101.333 18.2976C100.72 17.7294 99.9892 17.2898 99.1869 17.0071C98.3847 16.7243 97.529 16.6049 96.6752 16.6563C95.4807 16.6266 94.295 16.8577 93.2091 17.3319C92.1232 17.8061 91.1659 18.5108 90.4108 19.3919C88.6718 21.3761 87.6987 23.8669 87.6534 26.4502C87.5591 27.2603 87.6379 28.0801 87.885 28.8605C88.1321 29.6409 88.5424 30.3657 89.0913 30.9914C89.7034 31.5583 90.4335 31.9969 91.2346 32.279C92.0357 32.5612 92.89 32.6806 93.7425 32.6296C94.9316 32.6579 96.1123 32.4317 97.1972 31.9677C98.2821 31.5037 99.2437 30.8138 100.011 29.9489C101.75 27.9646 102.723 25.4739 102.768 22.8905C102.944 20.8696 102.425 19.3371 101.333 18.2976ZM96.9631 27.2157C96.7125 27.6863 96.3361 28.0858 95.8716 28.3739C95.4072 28.662 94.8712 28.8287 94.3175 28.857C94.0085 28.873 93.7 28.8165 93.4193 28.6924C93.1386 28.5683 92.8942 28.3805 92.7076 28.1455C92.3344 27.5519 92.1543 26.8664 92.1902 26.1755C92.2342 24.7441 92.6703 23.3484 93.4554 22.1266C93.706 21.656 94.0824 21.2565 94.5469 20.9684C95.0113 20.6803 95.5473 20.5136 96.101 20.4853C96.41 20.4693 96.7185 20.5258 96.9992 20.6499C97.2799 20.774 97.5243 20.9617 97.7108 21.1968C98.0968 21.7839 98.2591 22.4794 98.1707 23.1668C98.164 24.596 97.7464 25.9962 96.9631 27.2157Z" fill="#9C9C9D"/>
<path d="M76.549 25.684V8.6134H72.3512L57.8022 32.6891H59.4121C60.3944 32.6882 61.3589 32.4397 62.2074 31.9688C63.0559 31.4979 63.7582 30.8215 64.2426 30.0084L72.2936 16.6587V32.6891H76.2611L81.9545 23.224V40.7298H86.1523V16.7112H81.9545L76.549 25.684Z" fill="#9C9C9D"/>
<path d="M168.385 32.5773L170.398 25.4649L174.769 29.6234L175.688 30.4984C177.093 31.831 178.995 32.5787 180.979 32.5773H183.796L175.401 24.5891L183.796 16.6009H177.816L170.972 23.1114L174.71 10.0356H170.34L163.957 32.5773H168.385Z" fill="#9C9C9D"/>
<path d="M195.699 24.5896C194.602 23.692 193.333 23.0047 191.961 22.5655C191.271 22.3464 190.523 21.9636 190.696 21.2537C190.869 20.597 191.731 20.597 191.731 20.597H197.079C197.879 19.3436 198.516 18.0024 198.977 16.6029H191.789C190.586 16.6314 189.425 17.031 188.481 17.7414C187.537 18.4519 186.862 19.4348 186.556 20.5422C186.383 21.251 186.391 21.989 186.582 22.6938C186.772 23.3986 187.138 24.0495 187.648 24.5911C188.746 25.4888 190.015 26.1761 191.386 26.6152C192.077 26.8343 192.824 27.2171 192.652 27.927C192.479 28.5837 191.617 28.5837 191.617 28.5837H185.291L184.198 32.5747H191.559C192.762 32.5462 193.923 32.1467 194.867 31.4362C195.81 30.7258 196.486 29.7428 196.792 28.6354C196.95 27.9261 196.934 27.1914 196.745 26.489C196.555 25.7866 196.198 25.1354 195.699 24.5865V24.5896Z" fill="#9C9C9D"/>
</svg>
