<svg width="231" height="45" viewBox="0 0 231 45" fill="none" xmlns="http://www.w3.org/2000/svg">
<path d="M63.6723 34.7994C61.7533 34.7994 60.0376 34.4043 58.525 33.6141C57.035 32.8014 55.8611 31.6952 55.0032 30.2955C54.1453 28.8733 53.7164 27.2704 53.7164 25.4869V10.8579H58.8298V25.1821C58.8298 26.1303 59.0442 26.9882 59.4732 27.7558C59.9021 28.5008 60.4778 29.099 61.2002 29.5505C61.9452 30.002 62.7692 30.2278 63.6723 30.2278C64.5979 30.2278 65.4332 30.002 66.1782 29.5505C66.9457 29.099 67.544 28.5008 67.9729 27.7558C68.4244 26.9882 68.6502 26.1303 68.6502 25.1821V10.8579H73.5943V25.4869C73.5943 27.2704 73.1653 28.8733 72.3075 30.2955C71.4496 31.6952 70.2644 32.8014 68.7518 33.6141C67.2618 34.4043 65.5686 34.7994 63.6723 34.7994ZM78.8714 34.5962V16.6824H83.4769L83.6123 20.3396L82.6641 20.746C82.9125 19.9333 83.3527 19.1996 83.9848 18.5449C84.6395 17.8676 85.4184 17.3258 86.3214 16.9194C87.2244 16.5131 88.1726 16.3099 89.1659 16.3099C90.5205 16.3099 91.6493 16.5808 92.5523 17.1226C93.4779 17.6644 94.1664 18.4884 94.618 19.5947C95.092 20.6783 95.3291 22.0215 95.3291 23.6244V34.5962H90.5205V23.9969C90.5205 23.1842 90.4076 22.5069 90.1818 21.9651C89.9561 21.4233 89.6062 21.0282 89.1321 20.7799C88.6806 20.509 88.1162 20.3961 87.4389 20.4412C86.8971 20.4412 86.3891 20.5315 85.915 20.7121C85.4635 20.8702 85.0684 21.1072 84.7298 21.4233C84.4137 21.7393 84.1541 22.1006 83.9509 22.5069C83.7703 22.9133 83.68 23.3535 83.68 23.8276V34.5962H81.3096C80.7904 34.5962 80.3276 34.5962 79.9212 34.5962C79.5148 34.5962 79.1649 34.5962 78.8714 34.5962ZM100.614 34.5962V10.8917H111.112C112.579 10.8917 113.911 11.2304 115.108 11.9076C116.304 12.5623 117.241 13.4541 117.918 14.5829C118.618 15.7116 118.968 16.9984 118.968 18.4433C118.968 19.8656 118.618 21.1637 117.918 22.3376C117.241 23.489 116.304 24.4033 115.108 25.0805C113.911 25.7578 112.579 26.0964 111.112 26.0964H105.524V34.5962H100.614ZM114.058 34.5962L108.03 23.8953L113.245 23.0487L119.95 34.6301L114.058 34.5962ZM105.524 21.9651H110.875C111.484 21.9651 112.015 21.8296 112.466 21.5587C112.941 21.2653 113.302 20.8702 113.55 20.3735C113.798 19.8543 113.923 19.2786 113.923 18.6465C113.923 17.9692 113.776 17.3822 113.482 16.8856C113.189 16.3889 112.76 16.0051 112.196 15.7342C111.631 15.4407 110.976 15.294 110.231 15.294H105.524V21.9651ZM131.486 34.9348C129.545 34.9348 127.852 34.5398 126.407 33.7496C124.962 32.9595 123.833 31.8758 123.02 30.4987C122.208 29.1216 121.801 27.5413 121.801 25.7578C121.801 24.3807 122.027 23.1165 122.479 21.9651C122.93 20.8137 123.562 19.8204 124.375 18.9851C125.188 18.1272 126.147 17.4725 127.253 17.021C128.382 16.5469 129.601 16.3099 130.911 16.3099C132.13 16.3099 133.259 16.5356 134.297 16.9872C135.335 17.4161 136.227 18.0369 136.972 18.8497C137.74 19.6398 138.327 20.5767 138.733 21.6603C139.139 22.744 139.32 23.9292 139.275 25.216L139.241 26.706H124.849L124.07 23.7599H135.279L134.737 24.3694V23.6244C134.692 23.0149 134.489 22.4618 134.128 21.9651C133.789 21.4684 133.349 21.0846 132.807 20.8137C132.265 20.5428 131.656 20.4074 130.978 20.4074C129.985 20.4074 129.138 20.5993 128.439 20.9831C127.761 21.3668 127.242 21.9312 126.881 22.6762C126.52 23.4212 126.339 24.3243 126.339 25.3853C126.339 26.4689 126.565 27.4058 127.016 28.196C127.49 28.9861 128.145 29.607 128.98 30.0585C129.838 30.4874 130.843 30.7019 131.994 30.7019C132.784 30.7019 133.507 30.5777 134.162 30.3294C134.816 30.0811 135.516 29.6521 136.261 29.0426L138.564 32.2596C137.909 32.8466 137.187 33.3432 136.397 33.7496C135.606 34.1334 134.794 34.4269 133.958 34.6301C133.123 34.8332 132.299 34.9348 131.486 34.9348ZM149.533 34.9348C148.043 34.9348 146.7 34.5285 145.504 33.7157C144.307 32.903 143.359 31.7968 142.659 30.3971C141.959 28.9974 141.609 27.3945 141.609 25.5885C141.609 23.7824 141.959 22.1909 142.659 20.8137C143.382 19.414 144.352 18.3191 145.571 17.529C146.791 16.7163 148.179 16.3099 149.737 16.3099C150.617 16.3099 151.419 16.4453 152.141 16.7163C152.886 16.9646 153.529 17.3145 154.071 17.766C154.636 18.2175 155.11 18.7368 155.493 19.3237C155.877 19.9107 156.148 20.5428 156.306 21.2201L155.29 21.0508V16.6824H160.065V34.5962H155.223V30.2955L156.306 30.1939C156.126 30.8261 155.832 31.4243 155.426 31.9887C155.019 32.5531 154.511 33.061 153.902 33.5126C153.315 33.9415 152.649 34.2914 151.904 34.5623C151.159 34.8107 150.369 34.9348 149.533 34.9348ZM150.854 30.7696C151.757 30.7696 152.547 30.5551 153.225 30.1262C153.902 29.6973 154.421 29.099 154.782 28.3314C155.166 27.5413 155.358 26.627 155.358 25.5885C155.358 24.5726 155.166 23.6809 154.782 22.9133C154.421 22.1457 153.902 21.5474 153.225 21.1185C152.547 20.667 151.757 20.4412 150.854 20.4412C149.974 20.4412 149.195 20.667 148.518 21.1185C147.863 21.5474 147.344 22.1457 146.96 22.9133C146.576 23.6809 146.384 24.5726 146.384 25.5885C146.384 26.627 146.576 27.5413 146.96 28.3314C147.344 29.099 147.863 29.6973 148.518 30.1262C149.195 30.5551 149.974 30.7696 150.854 30.7696ZM164.92 34.5962V9.53719H169.729V34.5962H164.92ZM189.373 34.5962L182.025 23.963L172.611 10.8917H178.842L186.021 21.3894L195.604 34.5962H189.373ZM172.441 34.5962L181.483 21.6942L185.343 24.3694L178.334 34.5962H172.441ZM186.562 23.5905L182.736 21.0169L189.373 10.8917H195.265L186.562 23.5905ZM198.931 34.5962V10.8917H209.429C210.896 10.8917 212.228 11.2304 213.424 11.9076C214.621 12.5623 215.558 13.4541 216.235 14.5829C216.935 15.7116 217.285 16.9984 217.285 18.4433C217.285 19.8656 216.935 21.1637 216.235 22.3376C215.558 23.489 214.621 24.4033 213.424 25.0805C212.228 25.7578 210.896 26.0964 209.429 26.0964H203.841V34.5962H198.931ZM212.375 34.5962L206.347 23.8953L211.562 23.0487L218.267 34.6301L212.375 34.5962ZM203.841 21.9651H209.191C209.801 21.9651 210.332 21.8296 210.783 21.5587C211.257 21.2653 211.618 20.8702 211.867 20.3735C212.115 19.8543 212.239 19.2786 212.239 18.6465C212.239 17.9692 212.092 17.3822 211.799 16.8856C211.505 16.3889 211.077 16.0051 210.512 15.7342C209.948 15.4407 209.293 15.294 208.548 15.294H203.841V21.9651Z" fill="#94949A"/>
<path d="M27.3636 12.7696L41.4808 27.294V18.0635L37.4086 12.7696L41.4808 8.4258V0.0993652H0.758118V8.4258L16.2328 24.1719L0.758118 39.6466H10.5316L21.391 29.1944L31.7074 39.6466H41.4808L9.0384 6.93263H33.472L27.3636 12.7696Z" fill="#94949A"/>
</svg>
