<svg width="95" height="45" viewBox="0 0 95 45" fill="none" xmlns="http://www.w3.org/2000/svg">
<path fill-rule="evenodd" clip-rule="evenodd" d="M31.6575 1.28234L18.8801 20.1288L32.2229 39.8302C32.4113 40.141 32.5244 40.3742 32.5244 40.5296C32.5244 40.9182 32.2229 41.1125 31.6198 41.1125H29.8106C29.3206 41.1125 28.9437 41.0736 28.7176 40.9182C28.4914 40.8016 28.1899 40.4519 27.813 39.9079L16.7317 23.3152L5.61273 39.9079C5.23582 40.413 4.93429 40.7628 4.70814 40.9182C4.48199 41.0736 4.10507 41.1514 3.61509 41.1514H1.88128C1.27822 41.1514 0.976685 40.9571 0.976685 40.5685C0.976685 40.413 1.08976 40.1799 1.27822 39.869L14.5456 20.2454L1.84359 1.28234C1.65513 0.971467 1.54206 0.738315 1.54206 0.58288C1.54206 0.194293 1.84359 0 2.44665 0H4.29353C4.78352 0 5.16043 0.0777174 5.38658 0.233152C5.61273 0.349728 5.91426 0.699457 6.29118 1.24348L16.8071 16.9813L27.3607 1.20462C27.7376 0.660598 28.0391 0.349728 28.2653 0.194293C28.4914 0.0777174 28.8683 0 29.3583 0H31.0545C31.6575 0 31.959 0.194293 31.959 0.58288C31.959 0.738315 31.846 0.971467 31.6575 1.28234ZM76.0581 34.8951H74.6258C74.2112 34.8951 73.9097 34.8174 73.7589 34.662C73.5704 34.5065 73.495 34.1957 73.495 33.7294V22.0717V18.6522V10.9193C73.495 10.453 73.5704 10.1421 73.7589 9.98669C73.9097 9.83126 74.2112 9.75354 74.6258 9.75354H76.0581C76.4727 9.75354 76.7365 9.83126 76.925 9.98669C77.1134 10.1421 77.1888 10.453 77.1888 10.9193V18.6522V22.0717V33.7294C77.1888 34.1957 77.1134 34.5065 76.925 34.662C76.7742 34.8174 76.4727 34.8951 76.0581 34.8951ZM89.0614 34.8951H90.4936C90.9082 34.8951 91.2098 34.8174 91.3605 34.662C91.549 34.5065 91.6244 34.1957 91.6244 33.7294V22.0717V18.6522V10.9193C91.6244 10.453 91.549 10.1421 91.3605 9.98669C91.1721 9.83126 90.9082 9.75354 90.4936 9.75354H89.0614C88.6468 9.75354 88.3452 9.83126 88.1945 9.98669C88.006 10.1421 87.9306 10.453 87.9306 10.9193V18.6522V22.0717V33.7294C87.9306 34.1957 88.006 34.5065 88.1945 34.662C88.3452 34.8174 88.6468 34.8951 89.0614 34.8951ZM74.6258 5.59565C74.2112 5.59565 73.9473 5.51794 73.7589 5.3625C73.6081 5.24593 73.5327 5.01277 73.495 4.66304V4.42989V3.69158V1.16576C73.495 0.699457 73.5704 0.388587 73.7589 0.233152C73.9097 0.0777174 74.2112 0 74.6258 0H76.0581C76.4727 0 76.7365 0.0777174 76.925 0.233152C77.1134 0.388587 77.1888 0.699457 77.1888 1.16576V3.69158V4.39103V4.62419C77.1511 4.97391 77.0757 5.24593 76.925 5.3625C76.7742 5.51794 76.4727 5.59565 76.0581 5.59565H74.6258ZM88.1945 5.3625C88.3829 5.51794 88.6468 5.59565 89.0614 5.59565H90.4936C90.9082 5.59565 91.2098 5.51794 91.3605 5.3625C91.5113 5.24593 91.5867 4.97391 91.6244 4.62419V4.39103V3.69158V1.16576C91.6244 0.699457 91.549 0.388587 91.3605 0.233152C91.1721 0.0777174 90.9082 0 90.4936 0H89.0614C88.6468 0 88.3452 0.0777174 88.1945 0.233152C88.006 0.388587 87.9306 0.699457 87.9306 1.16576V3.69158V4.42989V4.66304C87.9683 5.01277 88.0437 5.24593 88.1945 5.3625ZM63.1297 32.9522C69.0096 40.8405 83.37 43.5217 91.3229 38.3535C93.4336 36.9546 95.3936 40.4131 93.3205 41.7731C83.1062 48.4179 65.1273 44.3766 58.9459 33.5351C58.8706 33.3408 51.8223 22.1106 51.8223 22.1106C51.6338 21.7997 51.5207 21.5277 51.5207 21.3334C51.5207 21.178 51.5584 21.1003 51.6715 21.0226C51.7469 20.9448 51.9353 20.906 52.1992 20.8671C55.0637 20.634 57.3252 19.8568 58.9459 18.4967C60.5667 17.1367 61.3582 15.0772 61.3582 12.2794C61.3582 9.32609 60.3405 7.15 58.2675 5.78995C56.1945 4.42989 53.2545 3.76929 49.41 3.76929H42.9648C42.5879 3.76929 42.3994 3.96359 42.3994 4.35217V39.9856C42.3994 40.4519 42.324 40.7628 42.1356 40.9182C41.9848 41.0737 41.6833 41.1514 41.2687 41.1514H39.8364C39.4218 41.1514 39.1579 41.0737 38.9695 40.9182C38.781 40.7628 38.7056 40.4519 38.7056 39.9856V24.4033H34.5973C34.145 24.4033 33.8434 24.3256 33.6927 24.1313C33.5419 23.9758 33.4665 23.665 33.4665 23.2375V21.7609C33.4665 21.3334 33.5419 21.0614 33.6927 20.8671C33.8434 20.6728 34.145 20.5951 34.5973 20.5951H38.7056V1.16576C38.7056 0.699457 38.781 0.388587 38.9695 0.233152C39.1203 0.0777174 39.4218 0 39.8364 0H49.7115C54.9507 0 58.8706 1.04919 61.3959 3.18641C63.9589 5.28478 65.2404 8.31576 65.2404 12.2794C65.2404 15.1938 64.5243 17.603 63.0543 19.4682C61.5843 21.3334 59.5867 22.6546 56.986 23.4318L63.1297 32.9522Z" fill="#9D9DA6"/>
</svg>
