<svg width="160" height="45" viewBox="0 0 160 45" fill="none" xmlns="http://www.w3.org/2000/svg">
<path d="M146.289 37.2959C148.919 37.7005 152.189 36.8407 154.397 36.7059C157.533 36.2339 159.758 38.3243 159.758 39.7909C159.522 41.8139 157.23 40.1281 149.728 42.3702C145.041 43.4828 141.518 43.5503 139.141 43.3817C133.038 42.9771 130.307 37.4139 136.696 33.2163L143.507 28.85C143.76 28.6814 143.811 28.5971 143.507 28.5803L140.068 28.5128C138.281 28.5128 136.073 28.378 135.483 25.9167C134.994 23.7589 135.938 22.3765 140.338 22.1574L149.525 22.0056C154.751 21.8033 156.437 26.9788 152.459 30.3167C152.459 30.3167 150.2 32.5419 145.142 35.981C144.485 36.6384 145.243 37.1948 146.289 37.2959Z" fill="#9C9C9D"/>
<path d="M85.0259 31.2777L95.7814 34.565C101.479 36.9083 101.53 38.5098 100.704 40.263C99.9285 41.9151 98.4281 43.0952 93.3707 41.1059L82.1095 35.1887C80.6765 34.5144 79.1088 34.8853 78.839 36.4531L78.4344 40.2124C77.9961 42.2017 76.7149 43.6009 74.7762 43.4323C72.8544 43.2637 71.4215 41.5611 71.5901 39.6393C71.5901 39.6224 71.5901 39.6055 71.5901 39.6055L75.7371 3.31012C75.8551 1.89404 76.7992 0.444246 78.2153 0.579111C80.5923 0.781408 82.3287 2.87181 82.1264 5.24879L79.7662 24.8379C79.6145 25.7145 79.7325 25.6302 80.8283 25.1413C80.8283 25.1413 91.2971 19.2241 99.507 16.1391C101.918 15.3299 102.761 16.1054 103.688 17.9598C104.615 19.8142 104.902 20.8594 101.21 22.8318L85.0259 31.2777Z" fill="#9C9C9D"/>
<path d="M116.484 34.1601C112.556 36.6888 110.415 35.9134 110.415 35.9134C110.415 35.9134 111.747 34.059 114.815 32.5923C117.883 31.1257 120.243 31.2774 120.243 31.2774L116.484 34.1601ZM127.593 30.7716C121.423 22.7303 118.54 24.7196 115.27 25.9502C113.382 26.8437 113.635 26.3885 108.307 29.659C102.98 32.9295 102.34 36.6214 104.278 39.9593C106.217 43.2972 110.044 44.3761 113.786 42.3363C117.529 40.2965 122.839 35.7111 122.991 35.5931L125.402 38.6444C126.919 40.3302 128.824 40.8022 130.324 39.4536C130.762 39.0995 131.15 38.6949 131.504 38.2566C131.133 37.5486 131.1 35.8628 127.61 30.7885" fill="#9C9C9D"/>
<path d="M49.0681 34.7672C36.9134 34.5649 21.4208 36.4025 16.3297 35.7956C15.8577 35.7787 15.5036 35.4078 15.5036 34.9358C15.5036 34.7167 15.6048 34.5144 15.7565 34.3626C23.2584 26.7091 35.5816 16.5268 39.7118 11.2839C43.6566 6.27709 43.2857 -0.533577 29.8161 0.0564557L13.4132 1.86027C12.6209 1.9277 11.896 2.38287 11.5083 3.07405L9.33359 6.66482C8.3221 8.35063 9.19873 10.4579 11.4914 10.3567C13.7841 10.2556 21.4208 8.90694 26.6805 8.55292C30.2376 8.31691 31.8391 8.38435 31.738 8.43492L2.70837 36.7059C-0.81497 39.9258 0.735966 45.0001 5.47308 45.0001C13.1772 44.8652 6.48458 42.1005 49.6918 43.348C51.2259 43.3986 52.3385 42.9771 53.4849 42.2859L57.3285 39.9426C57.9523 39.5886 58.1546 38.7963 57.8006 38.1726C57.6825 37.9703 57.5308 37.8185 57.3285 37.7005L53.9906 35.9641C52.4734 35.2055 50.7876 34.7841 49.0681 34.7672Z" fill="#9C9C9D"/>
<path d="M58.053 2.68624C57.1089 4.43948 62.2507 9.76663 65.4537 4.7935C67.0046 2.39965 64.8805 0.444111 62.5878 0.0563758C60.6323 -0.280786 58.997 0.932997 58.053 2.68624Z" fill="#9C9C9D"/>
<path d="M53.687 2.68624C54.6311 4.43948 49.4894 9.76663 46.2863 4.7935C44.7354 2.39965 46.8595 0.444111 49.1522 0.0563758C51.1077 -0.280786 52.743 0.932997 53.687 2.68624Z" fill="#9C9C9D"/>
<path d="M69.6181 7.49085C71.4219 7.49085 72.8886 8.9575 72.8886 10.7613C72.8886 10.8962 72.8886 11.0142 72.8717 11.149C71.2871 25.1413 64.3078 33.8063 56.6711 33.9074C49.911 33.9074 44.8536 28.142 43.1678 20.067C42.7801 18.1789 43.9938 16.3413 45.8651 15.9536C46.1011 15.903 46.3371 15.8862 46.5731 15.8862C48.0061 15.8862 49.2536 16.8639 49.5739 18.2463C50.7708 23.5397 53.0972 27.1136 55.9968 27.1136C61.3914 27.1136 65.2013 20.657 65.6396 11.2839C65.7408 9.12608 67.494 7.47399 69.6181 7.49085Z" fill="#9C9C9D"/>
</svg>
